# xmcd
#
# Track frame offsets: 
#        150
#        15648
#        26279
#        42604
#        56511
#        73836
#        85451
#        98659
#        114514
#        129611
#        142160
#        159670
#        176368
#        191810
#        205977
#        221522
#
# Disc length: 3114 seconds
#
# Revision: 0
# Processed by: cddbd v1.5.2PL0 Copyright (c) Steve Scherf et al.
# Submitted via: ExactAudioCopy v1.3
#
DISCID=eb0c2810
DTITLE=Various Artist - Nashville Greatest Hits seasons 1-5
DYEAR=2017
DGENRE=Country
TTITLE0=Lennon and Maisy - Sanctuary
TTITLE1=Clare Bowen and Sam Palladio - Plenty Far To Fall
TTITLE2=Chris Carmack - What If I Was Willing
TTITLE3=Connie Britton - Buried Under
TTITLE4=Charles Esten - Clare Bowen
TTITLE5=Hayden Panettiere - Trouble Is
TTITLE6=Jonathan Jackson - This is What I Need To Say
TTITLE7=Clare Bowen and Sam Palladio - Fade Into You
TTITLE8=Connie Britton - Ball And Chain
TTITLE9=Clare Bowen - My Song
TTITLE10=Hayden Panettiere - For Your Glory
TTITLE11=Clare Bowen and Sam Palladio - When The Right One Comes Along
TTITLE12=Chris Carmack - Stand Up
TTITLE13=Lennon and Maisy - Your Best
TTITLE14=Clare Bowen and Sam Palladio - Longer
TTITLE15=Hayden Panettiere - Boys And Buses
EXTD=
EXTT0=
EXTT1=
EXTT2=
EXTT3=
EXTT4=
EXTT5=
EXTT6=
EXTT7=
EXTT8=
EXTT9=
EXTT10=
EXTT11=
EXTT12=
EXTT13=
EXTT14=
EXTT15=
PLAYORDER=
